# xmcd
#
# Track frame offsets: 
#        150
#        3387
#        55501
#        77213
#        94613
#        102128
#        120379
#        138540
#        173515
#
# Disc length: 2809 seconds
#
# Revision: 1
# Processed by: cddbd v1.5.2PL0 Copyright (c) Steve Scherf et al.
# Submitted via: ExactAudioCopy v1.0b3
#
DISCID=600af709
DTITLE=John Coltrane - Sun Ship. The Complete Session [CD2)
DYEAR=2013
DGENRE=Jazz
TTITLE0=Studio Conversation
TTITLE1=Ascent - Take 1, Complete Version
TTITLE2=Ascent - Take 2, Incomplete Version
TTITLE3=Ascent - Take 3, False Starts and Incomplete Version
TTITLE4=Ascent - Take 4-6, Inserts - False Starts
TTITLE5=Ascent - Take 7, Complete Insert 4
TTITLE6=Ascent - Take 8, Complete Insert 5
TTITLE7=Amen - Take 1, Alternate Version
TTITLE8=Amen - Take 2, Released Version
EXTD=YEAR: 1965
EXTT0=
EXTT1=
EXTT2=
EXTT3=
EXTT4=
EXTT5=
EXTT6=
EXTT7=
EXTT8=
PLAYORDER=
